<?xml version="1.0" standalone="no"?>
<!DOCTYPE svg PUBLIC "-//W3C//DTD SVG 20010904//EN"
 "http://www.w3.org/TR/2001/REC-SVG-20010904/DTD/svg10.dtd">
<svg version="1.0" xmlns="http://www.w3.org/2000/svg"
 width="512.000000pt" height="512.000000pt" viewBox="0 0 512.000000 512.000000"
 preserveAspectRatio="xMidYMid meet">
<metadata>
Created by potrace 1.14, written by Peter Selinger 2001-2017
</metadata>
<g transform="translate(0.000000,512.000000) scale(0.100000,-0.100000)"
fill="#000000" stroke="none">
<path d="M392 5106 c-184 -45 -343 -209 -381 -394 -15 -75 -15 -4229 0 -4304
34 -167 166 -317 334 -381 l60 -22 2120 -3 c1552 -2 2136 0 2180 8 199 38 361
198 404 398 15 74 16 4228 0 4304 -39 191 -205 357 -397 397 -82 17 -4249 14
-4320 -3z m1771 -420 c41 -17 83 -66 95 -110 10 -35 2 -107 -15 -128 -5 -7
-91 -113 -191 -235 -100 -122 -182 -225 -182 -230 0 -4 20 -21 46 -37 107 -68
232 -216 295 -349 93 -199 93 -460 1 -643 -171 -339 -577 -483 -947 -335 -142
57 -276 159 -372 283 -131 170 -205 444 -146 538 47 75 148 101 225 58 52 -30
75 -69 88 -153 46 -301 366 -519 638 -436 160 48 265 212 249 386 -19 205
-173 393 -372 455 -92 28 -145 90 -145 167 0 57 21 91 173 275 75 92 137 169
137 172 0 4 -165 6 -366 6 -357 -1 -366 0 -400 21 -114 70 -102 235 20 290 38
17 77 19 589 19 440 0 554 -3 580 -14z m1007 -861 l0 -865 230 0 230 0 0 411
0 412 53 -7 c28 -3 70 -6 93 -6 l41 0 18 -92 c43 -226 132 -491 217 -645 l39
-73 140 0 139 0 0 -195 0 -195 -810 0 -810 0 0 1060 0 1060 210 0 210 0 0
-865z m752 546 c31 -25 48 -81 48 -158 0 -137 -99 -181 -297 -131 l-43 10 0
123 0 122 73 21 c134 39 182 41 219 13z m-262 -2167 l0 -96 400 3 400 4 0
-100 0 -100 -307 3 -308 2 60 -56 c125 -116 319 -228 515 -295 52 -18 96 -33
98 -34 2 -2 -14 -27 -35 -57 -21 -31 -47 -74 -57 -97 -11 -22 -24 -41 -30 -41
-31 0 -229 99 -356 179 -26 17 -25 16 68 -99 l22 -28 -124 -94 c-68 -51 -164
-117 -212 -146 l-88 -52 382 2 382 3 0 -105 0 -105 -390 3 -390 4 0 -174 c0
-212 -10 -241 -86 -279 -44 -21 -65 -24 -207 -27 -87 -2 -172 -1 -190 2 -31 6
-33 9 -53 94 -12 48 -25 94 -28 103 -6 13 1 14 51 8 32 -4 105 -8 162 -8 143
-1 141 -3 141 156 l0 125 -415 -4 -415 -3 0 105 0 105 416 -3 417 -3 -6 46 -7
45 36 0 c19 0 58 12 87 26 67 34 167 104 167 117 0 6 -132 8 -375 5 l-375 -4
0 73 c0 40 -2 73 -4 73 -2 0 -34 -17 -70 -39 -105 -61 -219 -108 -224 -92 -2
7 -28 49 -58 93 -32 49 -48 81 -41 83 221 76 435 199 573 330 l69 65 -298 -2
-297 -3 0 100 0 100 390 -4 390 -3 0 96 0 96 110 0 110 0 0 -96z m-2170 -29
c377 0 706 3 733 7 l47 8 0 -123 0 -122 -765 0 -765 0 0 122 0 123 33 -8 c17
-4 340 -7 717 -7z m650 -785 l0 -115 -635 0 -635 0 0 115 0 115 635 0 635 0 0
-115z m270 -735 l0 -120 -905 0 -905 0 0 120 0 120 905 0 905 0 0 -120z"/>
<path d="M3361 1768 c-47 -50 -130 -125 -184 -167 l-99 -76 445 -3 c244 -1
455 1 467 6 20 7 15 13 -52 62 -40 29 -121 102 -179 161 l-106 108 5 -145 5
-144 -115 0 -116 0 4 43 c4 53 13 247 11 247 -1 0 -40 -41 -86 -92z"/>
</g>
</svg>
