<?xml version="1.0" standalone="no"?>
<!DOCTYPE svg PUBLIC "-//W3C//DTD SVG 20010904//EN"
 "http://www.w3.org/TR/2001/REC-SVG-20010904/DTD/svg10.dtd">
<svg version="1.0" xmlns="http://www.w3.org/2000/svg"
 width="512.000000pt" height="512.000000pt" viewBox="0 0 512.000000 512.000000"
 preserveAspectRatio="xMidYMid meet">
<metadata>
Created by potrace 1.14, written by Peter Selinger 2001-2017
</metadata>
<g transform="translate(0.000000,512.000000) scale(0.100000,-0.100000)"
fill="#000000" stroke="none">
<path d="M395 5106 c-176 -42 -340 -206 -381 -382 -9 -40 -11 -548 -10 -2185
2 -2049 3 -2136 20 -2183 37 -97 97 -184 165 -238 65 -51 156 -95 221 -106 80
-15 4226 -15 4300 -1 145 28 280 133 354 275 57 109 54 -20 54 2271 0 1268 -4
2128 -9 2150 -5 21 -11 46 -14 55 -8 34 -56 121 -93 168 -65 82 -175 152 -279
176 -76 18 -4252 18 -4328 0z m1732 -410 c47 -6 95 -43 120 -90 17 -32 19 -99
5 -137 -10 -24 -167 -222 -334 -421 -27 -31 -48 -60 -48 -65 0 -4 20 -21 44
-36 58 -36 161 -137 212 -207 72 -97 129 -237 150 -360 8 -53 7 -204 -1 -240
-4 -14 -8 -34 -10 -46 -1 -11 -15 -51 -30 -90 -99 -246 -330 -415 -605 -440
-36 -4 -67 -7 -70 -7 -6 -1 -152 16 -160 18 -3 1 -18 5 -35 9 -173 43 -350
163 -476 323 -118 148 -196 420 -148 514 56 111 181 132 265 45 34 -36 43 -54
53 -107 19 -101 39 -154 84 -221 98 -146 229 -226 402 -244 144 -15 296 62
358 183 47 90 55 231 18 335 -54 155 -175 274 -344 336 -78 29 -99 45 -125 91
-27 47 -28 105 -4 151 9 19 76 106 147 193 72 88 133 164 137 171 5 10 -72 12
-355 12 l-363 0 -34 24 c-48 34 -67 59 -78 103 -18 68 19 150 81 185 27 14 71
18 297 22 320 6 789 4 847 -4z m1044 -863 c1 -472 1 -861 1 -864 -1 -4 102 -7
228 -7 l230 0 0 409 0 409 63 -4 c34 -3 76 -5 93 -5 29 -1 32 -5 38 -38 44
-250 145 -555 237 -715 l32 -56 139 1 138 2 1 -60 c0 -33 1 -122 2 -197 l2
-138 -812 0 -813 0 0 1060 0 1060 210 0 210 0 1 -857z m740 546 c51 -20 80
-179 45 -247 -27 -52 -60 -67 -146 -66 -41 0 -99 6 -127 13 l-53 13 0 122 0
122 33 11 c17 7 49 15 70 19 20 3 39 9 41 13 7 11 110 11 137 0z m-252 -2161
c-3 -46 -3 -88 -1 -95 3 -9 91 -12 380 -9 208 2 382 4 387 6 28 7 32 -4 32
-104 l0 -104 -111 5 c-97 3 -387 6 -471 3 -30 0 -30 0 30 -56 51 -46 126 -102
220 -161 51 -33 209 -104 295 -134 52 -18 97 -33 98 -35 2 -1 -14 -29 -36 -61
-21 -32 -47 -75 -57 -95 -9 -21 -24 -38 -33 -38 -20 0 -265 120 -316 154 -21
15 -40 25 -42 23 -2 -1 19 -30 46 -63 l50 -59 -23 -18 c-12 -10 -31 -26 -42
-35 -47 -40 -196 -144 -273 -190 -46 -27 -77 -52 -70 -54 13 -5 643 -1 711 4
l37 3 0 -105 0 -105 -388 2 -388 3 -1 -165 c-1 -191 -13 -241 -66 -274 -49
-29 -140 -44 -262 -41 -60 1 -128 3 -150 3 l-40 0 -23 95 c-13 51 -26 100 -29
108 -4 12 1 14 23 9 36 -7 160 -15 239 -16 87 -1 93 10 91 158 l-1 118 -412 0
-413 0 0 106 0 106 43 -4 c23 -2 209 -5 413 -6 l371 -3 -1 50 -1 50 40 1 c22
1 51 7 65 14 39 20 180 115 180 121 0 9 -725 4 -739 -4 -8 -5 -11 15 -11 73 0
45 -2 81 -3 81 -2 0 -44 -22 -93 -50 -49 -27 -92 -50 -97 -50 -4 0 -28 -10
-54 -22 -31 -15 -48 -18 -50 -11 -3 7 -29 48 -58 93 l-55 81 28 10 c15 6 56
22 92 36 151 57 348 178 465 287 l70 65 -45 0 c-25 1 -66 1 -92 1 -27 0 -56 0
-65 0 -137 1 -234 -1 -305 -5 l-88 -5 0 104 c0 118 0 117 77 105 24 -3 192 -5
375 -5 l332 1 -2 78 c-1 43 -3 82 -3 85 -1 4 -1 10 0 13 0 4 52 7 114 8 l112
2 -6 -83z m-2149 -43 c355 0 671 4 703 8 l57 7 0 -125 c0 -93 -3 -125 -12
-126 -7 -1 -29 0 -48 1 -100 6 -1387 6 -1421 0 -25 -5 -42 -3 -46 3 -6 9 -7
59 -4 209 l1 38 63 -8 c34 -4 352 -7 707 -7z m630 -793 c0 -93 -3 -121 -12
-116 -14 9 -1092 12 -1178 4 -32 -3 -63 -4 -69 -2 -7 2 -11 45 -11 120 l0 117
635 0 635 0 0 -123z m-635 -611 c424 0 800 4 838 8 l67 7 1 -43 c0 -24 0 -72
0 -108 0 -36 0 -74 0 -85 -1 -19 -6 -20 -78 -15 -70 5 -1499 7 -1668 2 l-69
-2 -1 110 c-1 61 2 117 6 126 7 13 18 14 71 8 35 -4 410 -8 833 -8z"/>
<path d="M3335 1746 c-60 -63 -143 -137 -182 -166 -40 -28 -73 -53 -73 -55 0
-5 871 -3 907 2 l33 5 -73 51 c-39 27 -122 101 -183 162 l-111 112 3 -126 c3
-69 6 -131 9 -138 7 -19 -8 -23 -82 -24 -161 -2 -155 -3 -149 34 6 32 17 258
13 256 -1 0 -51 -51 -112 -113z"/>
</g>
</svg>
