<svg width="102" height="131" viewBox="0 0 102 131" fill="none" xmlns="http://www.w3.org/2000/svg">
<path d="M1.25 111C1.25 106.72 4.71979 103.25 9 103.25H93C97.2802 103.25 100.75 106.72 100.75 111V123C100.75 127.28 97.2802 130.75 93 130.75H9C4.71979 130.75 1.25 127.28 1.25 123V111Z" fill="#0087D4" stroke="black" stroke-width="0.5"/>
<mask id="path-2-outside-1_345_418381" maskUnits="userSpaceOnUse" x="9" y="111" width="83" height="15" fill="black">
<rect fill="white" x="9" y="111" width="83" height="15"/>
<path d="M18.1123 111.924V113.708H15.0977V122H12.9785V113.708H9.9502V111.924H18.1123ZM22.1729 116.347C21.389 116.347 20.8626 116.602 20.5938 117.112C20.4434 117.399 20.3682 117.841 20.3682 118.438V122H18.4062V114.549H20.2656V115.848C20.5664 115.351 20.8285 115.011 21.0518 114.829C21.4163 114.524 21.8903 114.371 22.4736 114.371C22.5101 114.371 22.5397 114.373 22.5625 114.378C22.5898 114.378 22.6468 114.38 22.7334 114.385V116.381C22.6104 116.367 22.501 116.358 22.4053 116.354C22.3096 116.349 22.2321 116.347 22.1729 116.347ZM25.8848 114.549V122H23.9092V114.549H25.8848ZM25.8848 111.862V113.66H23.9092V111.862H25.8848ZM34.0195 115.349C34.6211 115.991 34.9219 116.935 34.9219 118.179C34.9219 119.491 34.6257 120.492 34.0332 121.18C33.4453 121.868 32.6865 122.212 31.7568 122.212C31.1644 122.212 30.6722 122.064 30.2803 121.768C30.0661 121.604 29.8564 121.364 29.6514 121.05V124.933H27.7236V114.549H29.5898V115.649C29.7995 115.326 30.0228 115.071 30.2598 114.884C30.6927 114.551 31.2077 114.385 31.8047 114.385C32.6751 114.385 33.4134 114.706 34.0195 115.349ZM32.9121 118.274C32.9121 117.7 32.7799 117.192 32.5156 116.75C32.2559 116.308 31.832 116.087 31.2441 116.087C30.5378 116.087 30.0524 116.422 29.7881 117.092C29.6514 117.447 29.583 117.898 29.583 118.445C29.583 119.311 29.8132 119.92 30.2734 120.271C30.5469 120.476 30.8704 120.578 31.2441 120.578C31.7865 120.578 32.1989 120.368 32.4814 119.949C32.7686 119.53 32.9121 118.972 32.9121 118.274ZM36.3779 111.924H38.3262V122H36.3779V111.924ZM46.6113 119.812C46.5612 120.255 46.3311 120.703 45.9209 121.159C45.2829 121.884 44.3896 122.246 43.2412 122.246C42.2933 122.246 41.457 121.941 40.7324 121.33C40.0078 120.719 39.6455 119.726 39.6455 118.35C39.6455 117.06 39.9714 116.071 40.623 115.383C41.2793 114.695 42.1292 114.351 43.1729 114.351C43.7926 114.351 44.3509 114.467 44.8477 114.699C45.3444 114.932 45.7546 115.299 46.0781 115.8C46.3698 116.242 46.5589 116.755 46.6455 117.338C46.6956 117.68 46.7161 118.172 46.707 118.814H41.6074C41.6348 119.562 41.8695 120.086 42.3115 120.387C42.5804 120.574 42.904 120.667 43.2822 120.667C43.6833 120.667 44.0091 120.553 44.2598 120.325C44.3965 120.202 44.5173 120.031 44.6221 119.812H46.6113ZM44.6836 117.529C44.6517 117.014 44.4945 116.625 44.2119 116.36C43.9339 116.091 43.5876 115.957 43.1729 115.957C42.7217 115.957 42.3708 116.098 42.1201 116.381C41.874 116.663 41.7191 117.046 41.6553 117.529H44.6836ZM48.1836 111.924H50.2891V120.188H55.2793V122H48.1836V111.924ZM58.5879 114.549V122H56.6123V114.549H58.5879ZM58.5879 111.862V113.66H56.6123V111.862H58.5879ZM60.4473 119.963H62.5186V122H60.4473V119.963ZM70.8242 117.222H68.8281C68.7917 116.944 68.6982 116.693 68.5479 116.47C68.3291 116.169 67.9896 116.019 67.5293 116.019C66.873 116.019 66.4242 116.344 66.1826 116.996C66.055 117.342 65.9912 117.803 65.9912 118.377C65.9912 118.924 66.055 119.364 66.1826 119.696C66.415 120.316 66.8525 120.626 67.4951 120.626C67.9508 120.626 68.2744 120.503 68.4658 120.257C68.6572 120.011 68.7734 119.692 68.8145 119.3H70.8037C70.7581 119.892 70.5439 120.453 70.1611 120.981C69.5505 121.834 68.6458 122.26 67.4473 122.26C66.2487 122.26 65.3669 121.904 64.8018 121.193C64.2367 120.482 63.9541 119.56 63.9541 118.425C63.9541 117.144 64.2663 116.148 64.8906 115.438C65.515 114.727 66.3763 114.371 67.4746 114.371C68.4089 114.371 69.1722 114.581 69.7646 115C70.3617 115.419 70.7148 116.16 70.8242 117.222ZM78.3848 115.492C79.0137 116.281 79.3281 117.213 79.3281 118.288C79.3281 119.382 79.0137 120.318 78.3848 121.098C77.7559 121.872 76.8011 122.26 75.5205 122.26C74.2399 122.26 73.2852 121.872 72.6562 121.098C72.0273 120.318 71.7129 119.382 71.7129 118.288C71.7129 117.213 72.0273 116.281 72.6562 115.492C73.2852 114.704 74.2399 114.31 75.5205 114.31C76.8011 114.31 77.7559 114.704 78.3848 115.492ZM75.5137 115.957C74.944 115.957 74.5042 116.16 74.1943 116.565C73.889 116.966 73.7363 117.541 73.7363 118.288C73.7363 119.035 73.889 119.612 74.1943 120.018C74.5042 120.423 74.944 120.626 75.5137 120.626C76.0833 120.626 76.5208 120.423 76.8262 120.018C77.1315 119.612 77.2842 119.035 77.2842 118.288C77.2842 117.541 77.1315 116.966 76.8262 116.565C76.5208 116.16 76.0833 115.957 75.5137 115.957ZM84.9131 116.6C84.749 116.24 84.4277 116.06 83.9492 116.06C83.3932 116.06 83.0195 116.24 82.8281 116.6C82.7233 116.805 82.6709 117.11 82.6709 117.516V122H80.6953V114.562H82.5889V115.649C82.8304 115.262 83.0583 114.986 83.2725 114.822C83.6507 114.531 84.1406 114.385 84.7422 114.385C85.3118 114.385 85.7721 114.51 86.123 114.761C86.4056 114.993 86.6198 115.292 86.7656 115.656C87.0208 115.219 87.3376 114.897 87.7158 114.692C88.1169 114.487 88.5635 114.385 89.0557 114.385C89.3838 114.385 89.7074 114.449 90.0264 114.576C90.3454 114.704 90.6348 114.927 90.8945 115.246C91.1042 115.506 91.2454 115.825 91.3184 116.203C91.3639 116.454 91.3867 116.821 91.3867 117.304L91.373 122H89.377V117.256C89.377 116.973 89.3314 116.741 89.2402 116.559C89.0671 116.212 88.748 116.039 88.2832 116.039C87.7454 116.039 87.374 116.262 87.1689 116.709C87.0641 116.946 87.0117 117.231 87.0117 117.563V122H85.0498V117.563C85.0498 117.121 85.0042 116.8 84.9131 116.6Z"/>
</mask>
<path d="M18.1123 111.924V113.708H15.0977V122H12.9785V113.708H9.9502V111.924H18.1123ZM22.1729 116.347C21.389 116.347 20.8626 116.602 20.5938 117.112C20.4434 117.399 20.3682 117.841 20.3682 118.438V122H18.4062V114.549H20.2656V115.848C20.5664 115.351 20.8285 115.011 21.0518 114.829C21.4163 114.524 21.8903 114.371 22.4736 114.371C22.5101 114.371 22.5397 114.373 22.5625 114.378C22.5898 114.378 22.6468 114.38 22.7334 114.385V116.381C22.6104 116.367 22.501 116.358 22.4053 116.354C22.3096 116.349 22.2321 116.347 22.1729 116.347ZM25.8848 114.549V122H23.9092V114.549H25.8848ZM25.8848 111.862V113.66H23.9092V111.862H25.8848ZM34.0195 115.349C34.6211 115.991 34.9219 116.935 34.9219 118.179C34.9219 119.491 34.6257 120.492 34.0332 121.18C33.4453 121.868 32.6865 122.212 31.7568 122.212C31.1644 122.212 30.6722 122.064 30.2803 121.768C30.0661 121.604 29.8564 121.364 29.6514 121.05V124.933H27.7236V114.549H29.5898V115.649C29.7995 115.326 30.0228 115.071 30.2598 114.884C30.6927 114.551 31.2077 114.385 31.8047 114.385C32.6751 114.385 33.4134 114.706 34.0195 115.349ZM32.9121 118.274C32.9121 117.7 32.7799 117.192 32.5156 116.75C32.2559 116.308 31.832 116.087 31.2441 116.087C30.5378 116.087 30.0524 116.422 29.7881 117.092C29.6514 117.447 29.583 117.898 29.583 118.445C29.583 119.311 29.8132 119.92 30.2734 120.271C30.5469 120.476 30.8704 120.578 31.2441 120.578C31.7865 120.578 32.1989 120.368 32.4814 119.949C32.7686 119.53 32.9121 118.972 32.9121 118.274ZM36.3779 111.924H38.3262V122H36.3779V111.924ZM46.6113 119.812C46.5612 120.255 46.3311 120.703 45.9209 121.159C45.2829 121.884 44.3896 122.246 43.2412 122.246C42.2933 122.246 41.457 121.941 40.7324 121.33C40.0078 120.719 39.6455 119.726 39.6455 118.35C39.6455 117.06 39.9714 116.071 40.623 115.383C41.2793 114.695 42.1292 114.351 43.1729 114.351C43.7926 114.351 44.3509 114.467 44.8477 114.699C45.3444 114.932 45.7546 115.299 46.0781 115.8C46.3698 116.242 46.5589 116.755 46.6455 117.338C46.6956 117.68 46.7161 118.172 46.707 118.814H41.6074C41.6348 119.562 41.8695 120.086 42.3115 120.387C42.5804 120.574 42.904 120.667 43.2822 120.667C43.6833 120.667 44.0091 120.553 44.2598 120.325C44.3965 120.202 44.5173 120.031 44.6221 119.812H46.6113ZM44.6836 117.529C44.6517 117.014 44.4945 116.625 44.2119 116.36C43.9339 116.091 43.5876 115.957 43.1729 115.957C42.7217 115.957 42.3708 116.098 42.1201 116.381C41.874 116.663 41.7191 117.046 41.6553 117.529H44.6836ZM48.1836 111.924H50.2891V120.188H55.2793V122H48.1836V111.924ZM58.5879 114.549V122H56.6123V114.549H58.5879ZM58.5879 111.862V113.66H56.6123V111.862H58.5879ZM60.4473 119.963H62.5186V122H60.4473V119.963ZM70.8242 117.222H68.8281C68.7917 116.944 68.6982 116.693 68.5479 116.47C68.3291 116.169 67.9896 116.019 67.5293 116.019C66.873 116.019 66.4242 116.344 66.1826 116.996C66.055 117.342 65.9912 117.803 65.9912 118.377C65.9912 118.924 66.055 119.364 66.1826 119.696C66.415 120.316 66.8525 120.626 67.4951 120.626C67.9508 120.626 68.2744 120.503 68.4658 120.257C68.6572 120.011 68.7734 119.692 68.8145 119.3H70.8037C70.7581 119.892 70.5439 120.453 70.1611 120.981C69.5505 121.834 68.6458 122.26 67.4473 122.26C66.2487 122.26 65.3669 121.904 64.8018 121.193C64.2367 120.482 63.9541 119.56 63.9541 118.425C63.9541 117.144 64.2663 116.148 64.8906 115.438C65.515 114.727 66.3763 114.371 67.4746 114.371C68.4089 114.371 69.1722 114.581 69.7646 115C70.3617 115.419 70.7148 116.16 70.8242 117.222ZM78.3848 115.492C79.0137 116.281 79.3281 117.213 79.3281 118.288C79.3281 119.382 79.0137 120.318 78.3848 121.098C77.7559 121.872 76.8011 122.26 75.5205 122.26C74.2399 122.26 73.2852 121.872 72.6562 121.098C72.0273 120.318 71.7129 119.382 71.7129 118.288C71.7129 117.213 72.0273 116.281 72.6562 115.492C73.2852 114.704 74.2399 114.31 75.5205 114.31C76.8011 114.31 77.7559 114.704 78.3848 115.492ZM75.5137 115.957C74.944 115.957 74.5042 116.16 74.1943 116.565C73.889 116.966 73.7363 117.541 73.7363 118.288C73.7363 119.035 73.889 119.612 74.1943 120.018C74.5042 120.423 74.944 120.626 75.5137 120.626C76.0833 120.626 76.5208 120.423 76.8262 120.018C77.1315 119.612 77.2842 119.035 77.2842 118.288C77.2842 117.541 77.1315 116.966 76.8262 116.565C76.5208 116.16 76.0833 115.957 75.5137 115.957ZM84.9131 116.6C84.749 116.24 84.4277 116.06 83.9492 116.06C83.3932 116.06 83.0195 116.24 82.8281 116.6C82.7233 116.805 82.6709 117.11 82.6709 117.516V122H80.6953V114.562H82.5889V115.649C82.8304 115.262 83.0583 114.986 83.2725 114.822C83.6507 114.531 84.1406 114.385 84.7422 114.385C85.3118 114.385 85.7721 114.51 86.123 114.761C86.4056 114.993 86.6198 115.292 86.7656 115.656C87.0208 115.219 87.3376 114.897 87.7158 114.692C88.1169 114.487 88.5635 114.385 89.0557 114.385C89.3838 114.385 89.7074 114.449 90.0264 114.576C90.3454 114.704 90.6348 114.927 90.8945 115.246C91.1042 115.506 91.2454 115.825 91.3184 116.203C91.3639 116.454 91.3867 116.821 91.3867 117.304L91.373 122H89.377V117.256C89.377 116.973 89.3314 116.741 89.2402 116.559C89.0671 116.212 88.748 116.039 88.2832 116.039C87.7454 116.039 87.374 116.262 87.1689 116.709C87.0641 116.946 87.0117 117.231 87.0117 117.563V122H85.0498V117.563C85.0498 117.121 85.0042 116.8 84.9131 116.6Z" fill="white"/>
<path d="M18.1123 111.924H18.6123V111.424H18.1123V111.924ZM18.1123 113.708V114.208H18.6123V113.708H18.1123ZM15.0977 113.708V113.208H14.5977V113.708H15.0977ZM15.0977 122V122.5H15.5977V122H15.0977ZM12.9785 122H12.4785V122.5H12.9785V122ZM12.9785 113.708H13.4785V113.208H12.9785V113.708ZM9.9502 113.708H9.4502V114.208H9.9502V113.708ZM9.9502 111.924V111.424H9.4502V111.924H9.9502ZM17.6123 111.924V113.708H18.6123V111.924H17.6123ZM18.1123 113.208H15.0977V114.208H18.1123V113.208ZM14.5977 113.708V122H15.5977V113.708H14.5977ZM15.0977 121.5H12.9785V122.5H15.0977V121.5ZM13.4785 122V113.708H12.4785V122H13.4785ZM12.9785 113.208H9.9502V114.208H12.9785V113.208ZM10.4502 113.708V111.924H9.4502V113.708H10.4502ZM9.9502 112.424H18.1123V111.424H9.9502V112.424ZM20.5938 117.112L20.1514 116.879L20.1508 116.88L20.5938 117.112ZM20.3682 122V122.5H20.8682V122H20.3682ZM18.4062 122H17.9062V122.5H18.4062V122ZM18.4062 114.549V114.049H17.9062V114.549H18.4062ZM20.2656 114.549H20.7656V114.049H20.2656V114.549ZM20.2656 115.848H19.7656V117.639L20.6933 116.107L20.2656 115.848ZM21.0518 114.829L21.368 115.216L21.3728 115.212L21.0518 114.829ZM22.5625 114.378L22.4644 114.868L22.513 114.878H22.5625V114.378ZM22.7334 114.385H23.2334V113.91L22.7597 113.885L22.7334 114.385ZM22.7334 116.381L22.6782 116.878L23.2334 116.939V116.381H22.7334ZM22.1729 115.847C21.28 115.847 20.5374 116.146 20.1514 116.879L21.0361 117.345C21.1879 117.057 21.498 116.847 22.1729 116.847V115.847ZM20.1508 116.88C19.9432 117.277 19.8682 117.818 19.8682 118.438H20.8682C20.8682 117.865 20.9435 117.522 21.0367 117.344L20.1508 116.88ZM19.8682 118.438V122H20.8682V118.438H19.8682ZM20.3682 121.5H18.4062V122.5H20.3682V121.5ZM18.9062 122V114.549H17.9062V122H18.9062ZM18.4062 115.049H20.2656V114.049H18.4062V115.049ZM19.7656 114.549V115.848H20.7656V114.549H19.7656ZM20.6933 116.107C20.9883 115.62 21.2141 115.342 21.3679 115.216L20.7356 114.442C20.4428 114.681 20.1445 115.082 19.8379 115.589L20.6933 116.107ZM21.3728 115.212C21.6283 114.998 21.9801 114.871 22.4736 114.871V113.871C21.8005 113.871 21.2044 114.049 20.7307 114.446L21.3728 115.212ZM22.4736 114.871C22.4818 114.871 22.4853 114.871 22.4848 114.871C22.4845 114.871 22.4827 114.871 22.4795 114.871C22.4763 114.87 22.4712 114.87 22.4644 114.868L22.6606 113.888C22.5927 113.874 22.5267 113.871 22.4736 113.871V114.871ZM22.5625 114.878C22.5625 114.878 22.5628 114.878 22.5634 114.878C22.564 114.878 22.5648 114.878 22.5659 114.878C22.5682 114.878 22.5712 114.878 22.5751 114.878C22.5828 114.878 22.593 114.879 22.6057 114.879C22.6314 114.88 22.665 114.882 22.7071 114.884L22.7597 113.885C22.6758 113.881 22.6054 113.878 22.5625 113.878V114.878ZM22.2334 114.385V116.381H23.2334V114.385H22.2334ZM22.7886 115.884C22.658 115.869 22.5378 115.859 22.4291 115.854L22.3815 116.853C22.4642 116.857 22.5627 116.865 22.6782 116.878L22.7886 115.884ZM22.4291 115.854C22.3296 115.849 22.2433 115.847 22.1729 115.847V116.847C22.2209 116.847 22.2895 116.849 22.3815 116.853L22.4291 115.854ZM25.8848 114.549H26.3848V114.049H25.8848V114.549ZM25.8848 122V122.5H26.3848V122H25.8848ZM23.9092 122H23.4092V122.5H23.9092V122ZM23.9092 114.549V114.049H23.4092V114.549H23.9092ZM25.8848 111.862H26.3848V111.362H25.8848V111.862ZM25.8848 113.66V114.16H26.3848V113.66H25.8848ZM23.9092 113.66H23.4092V114.16H23.9092V113.66ZM23.9092 111.862V111.362H23.4092V111.862H23.9092ZM25.3848 114.549V122H26.3848V114.549H25.3848ZM25.8848 121.5H23.9092V122.5H25.8848V121.5ZM24.4092 122V114.549H23.4092V122H24.4092ZM23.9092 115.049H25.8848V114.049H23.9092V115.049ZM25.3848 111.862V113.66H26.3848V111.862H25.3848ZM25.8848 113.16H23.9092V114.16H25.8848V113.16ZM24.4092 113.66V111.862H23.4092V113.66H24.4092ZM23.9092 112.362H25.8848V111.362H23.9092V112.362ZM34.0195 115.349L34.3845 115.007L34.3833 115.006L34.0195 115.349ZM34.0332 121.18L33.6543 120.853L33.653 120.855L34.0332 121.18ZM30.2803 121.768L29.9762 122.165L29.9788 122.166L30.2803 121.768ZM29.6514 121.05L30.0702 120.777L29.1514 119.368V121.05H29.6514ZM29.6514 124.933V125.433H30.1514V124.933H29.6514ZM27.7236 124.933H27.2236V125.433H27.7236V124.933ZM27.7236 114.549V114.049H27.2236V114.549H27.7236ZM29.5898 114.549H30.0898V114.049H29.5898V114.549ZM29.5898 115.649H29.0898V117.341L30.0095 115.921L29.5898 115.649ZM30.2598 114.884L29.9551 114.487L29.9502 114.491L30.2598 114.884ZM32.5156 116.75L32.0845 117.003L32.0865 117.007L32.5156 116.75ZM29.7881 117.092L29.323 116.908L29.3214 116.912L29.7881 117.092ZM30.2734 120.271L29.9703 120.668L29.9734 120.671L30.2734 120.271ZM32.4814 119.949L32.0689 119.667L32.0668 119.67L32.4814 119.949ZM33.6545 115.69C34.1391 116.208 34.4219 117.009 34.4219 118.179H35.4219C35.4219 116.86 35.1031 115.774 34.3845 115.007L33.6545 115.69ZM34.4219 118.179C34.4219 119.424 34.1402 120.289 33.6543 120.853L34.4121 121.506C35.1111 120.694 35.4219 119.559 35.4219 118.179H34.4219ZM33.653 120.855C33.1631 121.428 32.5448 121.712 31.7568 121.712V122.712C32.8282 122.712 33.7276 122.307 34.4134 121.504L33.653 120.855ZM31.7568 121.712C31.2502 121.712 30.8701 121.587 30.5818 121.369L29.9788 122.166C30.4743 122.541 31.0786 122.712 31.7568 122.712V121.712ZM30.5843 121.371C30.4289 121.252 30.2555 121.061 30.0702 120.777L29.2326 121.323C29.4574 121.668 29.7032 121.955 29.9762 122.165L30.5843 121.371ZM29.1514 121.05V124.933H30.1514V121.05H29.1514ZM29.6514 124.433H27.7236V125.433H29.6514V124.433ZM28.2236 124.933V114.549H27.2236V124.933H28.2236ZM27.7236 115.049H29.5898V114.049H27.7236V115.049ZM29.0898 114.549V115.649H30.0898V114.549H29.0898ZM30.0095 115.921C30.1972 115.632 30.3855 115.421 30.5693 115.276L29.9502 114.491C29.6601 114.72 29.4018 115.02 29.1702 115.378L30.0095 115.921ZM30.5644 115.28C30.9017 115.021 31.307 114.885 31.8047 114.885V113.885C31.1084 113.885 30.4837 114.081 29.9551 114.487L30.5644 115.28ZM31.8047 114.885C32.5352 114.885 33.1426 115.148 33.6558 115.692L34.3833 115.006C33.6843 114.265 32.8151 113.885 31.8047 113.885V114.885ZM33.4121 118.274C33.4121 117.62 33.2606 117.022 32.9448 116.493L32.0865 117.007C32.2993 117.362 32.4121 117.78 32.4121 118.274H33.4121ZM32.9467 116.497C32.5825 115.877 31.9783 115.587 31.2441 115.587V116.587C31.6858 116.587 31.9293 116.739 32.0845 117.003L32.9467 116.497ZM31.2441 115.587C30.81 115.587 30.4079 115.691 30.0663 115.927C29.7255 116.162 29.4834 116.502 29.323 116.908L30.2532 117.275C30.3571 117.012 30.4898 116.849 30.6343 116.75C30.7781 116.65 30.9719 116.587 31.2441 116.587V115.587ZM29.3214 116.912C29.1553 117.344 29.083 117.862 29.083 118.445H30.083C30.083 117.935 30.1474 117.55 30.2548 117.271L29.3214 116.912ZM29.083 118.445C29.083 119.387 29.3338 120.183 29.9703 120.668L30.5766 119.873C30.2925 119.656 30.083 119.235 30.083 118.445H29.083ZM29.9734 120.671C30.3416 120.947 30.7729 121.078 31.2441 121.078V120.078C30.968 120.078 30.7522 120.005 30.5734 119.871L29.9734 120.671ZM31.2441 121.078C31.9384 121.078 32.5129 120.797 32.8961 120.229L32.0668 119.67C31.8849 119.94 31.6345 120.078 31.2441 120.078V121.078ZM32.894 120.232C33.2557 119.704 33.4121 119.036 33.4121 118.274H32.4121C32.4121 118.907 32.2814 119.356 32.0689 119.667L32.894 120.232ZM36.3779 111.924V111.424H35.8779V111.924H36.3779ZM38.3262 111.924H38.8262V111.424H38.3262V111.924ZM38.3262 122V122.5H38.8262V122H38.3262ZM36.3779 122H35.8779V122.5H36.3779V122ZM36.3779 112.424H38.3262V111.424H36.3779V112.424ZM37.8262 111.924V122H38.8262V111.924H37.8262ZM38.3262 121.5H36.3779V122.5H38.3262V121.5ZM36.8779 122V111.924H35.8779V122H36.8779ZM46.6113 119.812L47.1081 119.869L47.1712 119.312H46.6113V119.812ZM45.9209 121.159L45.5492 120.825L45.5456 120.829L45.9209 121.159ZM40.623 115.383L40.2612 115.038L40.26 115.039L40.623 115.383ZM46.0781 115.8L45.658 116.071L45.6608 116.075L46.0781 115.8ZM46.6455 117.338L47.1402 117.265L47.1401 117.264L46.6455 117.338ZM46.707 118.814V119.314H47.2L47.207 118.822L46.707 118.814ZM41.6074 118.814V118.314H41.0888L41.1078 118.833L41.6074 118.814ZM42.3115 120.387L42.5969 119.976L42.5928 119.973L42.3115 120.387ZM44.2598 120.325L43.9253 119.954L43.9234 119.955L44.2598 120.325ZM44.6221 119.812V119.312H44.3072L44.1712 119.596L44.6221 119.812ZM44.6836 117.529V118.029H45.2155L45.1826 117.498L44.6836 117.529ZM44.2119 116.36L43.8643 116.72L43.8703 116.725L44.2119 116.36ZM42.1201 116.381L41.7461 116.049L41.7431 116.052L42.1201 116.381ZM41.6553 117.529L41.1596 117.464L41.0849 118.029H41.6553V117.529ZM46.1145 119.756C46.0798 120.062 45.9154 120.418 45.5493 120.825L46.2925 121.494C46.7467 120.989 47.0426 120.447 47.1081 119.869L46.1145 119.756ZM45.5456 120.829C45.0206 121.425 44.2758 121.746 43.2412 121.746V122.746C44.5035 122.746 45.5451 122.343 46.2962 121.49L45.5456 120.829ZM43.2412 121.746C42.4112 121.746 41.689 121.482 41.0546 120.948L40.4102 121.712C41.225 122.399 42.1754 122.746 43.2412 122.746V121.746ZM41.0546 120.948C40.4864 120.469 40.1455 119.647 40.1455 118.35H39.1455C39.1455 119.805 39.5292 120.97 40.4102 121.712L41.0546 120.948ZM40.1455 118.35C40.1455 117.141 40.45 116.293 40.9861 115.727L40.26 115.039C39.4927 115.849 39.1455 116.979 39.1455 118.35H40.1455ZM40.9849 115.728C41.5371 115.149 42.2512 114.851 43.1729 114.851V113.851C42.0073 113.851 41.0215 114.24 40.2612 115.038L40.9849 115.728ZM43.1729 114.851C43.729 114.851 44.2135 114.955 44.6358 115.152L45.0596 114.246C44.4883 113.979 43.8563 113.851 43.1729 113.851V114.851ZM44.6358 115.152C45.04 115.341 45.3808 115.641 45.658 116.071L46.4982 115.529C46.1284 114.956 45.6488 114.522 45.0596 114.246L44.6358 115.152ZM45.6608 116.075C45.9079 116.45 46.0738 116.892 46.1509 117.411L47.1401 117.264C47.044 116.617 46.8317 116.034 46.4955 115.524L45.6608 116.075ZM46.1508 117.41C46.1951 117.712 46.2161 118.173 46.2071 118.807L47.207 118.822C47.2162 118.171 47.1962 117.647 47.1402 117.265L46.1508 117.41ZM46.707 118.314H41.6074V119.314H46.707V118.314ZM41.1078 118.833C41.1384 119.671 41.4092 120.378 42.0303 120.8L42.5928 119.973C42.3297 119.794 42.1311 119.452 42.1071 118.796L41.1078 118.833ZM42.0262 120.797C42.3913 121.051 42.8183 121.167 43.2822 121.167V120.167C42.9896 120.167 42.7695 120.096 42.5969 119.976L42.0262 120.797ZM43.2822 121.167C43.7834 121.167 44.2369 121.022 44.5961 120.695L43.9234 119.955C43.7813 120.084 43.5831 120.167 43.2822 120.167V121.167ZM44.5942 120.697C44.7924 120.519 44.9484 120.288 45.073 120.029L44.1712 119.596C44.0861 119.774 44.0006 119.886 43.9253 119.954L44.5942 120.697ZM44.6221 120.312H46.6113V119.312H44.6221V120.312ZM45.1826 117.498C45.1455 116.9 44.9569 116.373 44.5535 115.995L43.8703 116.725C44.0321 116.877 44.1578 117.129 44.1846 117.56L45.1826 117.498ZM44.5595 116.001C44.1811 115.635 43.707 115.457 43.1729 115.457V116.457C43.4682 116.457 43.6867 116.548 43.8643 116.72L44.5595 116.001ZM43.1729 115.457C42.6091 115.457 42.1101 115.639 41.7461 116.049L42.4942 116.713C42.6315 116.558 42.8343 116.457 43.1729 116.457V115.457ZM41.7431 116.052C41.4157 116.428 41.2324 116.912 41.1596 117.464L42.151 117.595C42.2057 117.18 42.3324 116.898 42.4972 116.709L41.7431 116.052ZM41.6553 118.029H44.6836V117.029H41.6553V118.029ZM48.1836 111.924V111.424H47.6836V111.924H48.1836ZM50.2891 111.924H50.7891V111.424H50.2891V111.924ZM50.2891 120.188H49.7891V120.688H50.2891V120.188ZM55.2793 120.188H55.7793V119.688H55.2793V120.188ZM55.2793 122V122.5H55.7793V122H55.2793ZM48.1836 122H47.6836V122.5H48.1836V122ZM48.1836 112.424H50.2891V111.424H48.1836V112.424ZM49.7891 111.924V120.188H50.7891V111.924H49.7891ZM50.2891 120.688H55.2793V119.688H50.2891V120.688ZM54.7793 120.188V122H55.7793V120.188H54.7793ZM55.2793 121.5H48.1836V122.5H55.2793V121.5ZM48.6836 122V111.924H47.6836V122H48.6836ZM58.5879 114.549H59.0879V114.049H58.5879V114.549ZM58.5879 122V122.5H59.0879V122H58.5879ZM56.6123 122H56.1123V122.5H56.6123V122ZM56.6123 114.549V114.049H56.1123V114.549H56.6123ZM58.5879 111.862H59.0879V111.362H58.5879V111.862ZM58.5879 113.66V114.16H59.0879V113.66H58.5879ZM56.6123 113.66H56.1123V114.16H56.6123V113.66ZM56.6123 111.862V111.362H56.1123V111.862H56.6123ZM58.0879 114.549V122H59.0879V114.549H58.0879ZM58.5879 121.5H56.6123V122.5H58.5879V121.5ZM57.1123 122V114.549H56.1123V122H57.1123ZM56.6123 115.049H58.5879V114.049H56.6123V115.049ZM58.0879 111.862V113.66H59.0879V111.862H58.0879ZM58.5879 113.16H56.6123V114.16H58.5879V113.16ZM57.1123 113.66V111.862H56.1123V113.66H57.1123ZM56.6123 112.362H58.5879V111.362H56.6123V112.362ZM60.4473 119.963V119.463H59.9473V119.963H60.4473ZM62.5186 119.963H63.0186V119.463H62.5186V119.963ZM62.5186 122V122.5H63.0186V122H62.5186ZM60.4473 122H59.9473V122.5H60.4473V122ZM60.4473 120.463H62.5186V119.463H60.4473V120.463ZM62.0186 119.963V122H63.0186V119.963H62.0186ZM62.5186 121.5H60.4473V122.5H62.5186V121.5ZM60.9473 122V119.963H59.9473V122H60.9473ZM70.8242 117.222V117.722H71.3784L71.3216 117.17L70.8242 117.222ZM68.8281 117.222L68.3324 117.287L68.3894 117.722H68.8281V117.222ZM68.5479 116.47L68.9626 116.19L68.9575 116.183L68.9522 116.176L68.5479 116.47ZM66.1826 116.996L65.7138 116.822L65.7134 116.823L66.1826 116.996ZM66.1826 119.696L66.6508 119.521L66.6495 119.517L66.1826 119.696ZM68.8145 119.3V118.8H68.3641L68.3172 119.248L68.8145 119.3ZM70.8037 119.3L71.3022 119.338L71.3437 118.8H70.8037V119.3ZM70.1611 120.981L69.7562 120.688L69.7547 120.69L70.1611 120.981ZM69.7646 115L69.4758 115.408L69.4773 115.409L69.7646 115ZM70.8242 116.722H68.8281V117.722H70.8242V116.722ZM69.3239 117.157C69.2778 116.805 69.158 116.481 68.9626 116.19L68.1331 116.749C68.2385 116.905 68.3055 117.082 68.3324 117.287L69.3239 117.157ZM68.9522 116.176C68.6169 115.715 68.107 115.519 67.5293 115.519V116.519C67.8722 116.519 68.0413 116.623 68.1435 116.764L68.9522 116.176ZM67.5293 115.519C67.1155 115.519 66.7314 115.623 66.4067 115.858C66.0843 116.092 65.8602 116.427 65.7138 116.822L66.6515 117.17C66.7466 116.913 66.8677 116.759 66.9942 116.668C67.1184 116.577 67.2868 116.519 67.5293 116.519V115.519ZM65.7134 116.823C65.5574 117.247 65.4912 117.773 65.4912 118.377H66.4912C66.4912 117.833 66.5527 117.438 66.6518 117.169L65.7134 116.823ZM65.4912 118.377C65.4912 118.956 65.5578 119.463 65.7158 119.875L66.6495 119.517C66.5523 119.264 66.4912 118.892 66.4912 118.377H65.4912ZM65.7145 119.872C65.8575 120.253 66.0783 120.576 66.396 120.802C66.715 121.027 67.0913 121.126 67.4951 121.126V120.126C67.2564 120.126 67.0927 120.07 66.9741 119.986C66.8543 119.901 66.7402 119.759 66.6508 119.521L65.7145 119.872ZM67.4951 121.126C68.031 121.126 68.5366 120.98 68.8605 120.564L68.0711 119.95C68.0122 120.026 67.8707 120.126 67.4951 120.126V121.126ZM68.8605 120.564C69.1226 120.227 69.2635 119.812 69.3117 119.352L68.3172 119.248C68.2833 119.571 68.1919 119.795 68.0711 119.95L68.8605 120.564ZM68.8145 119.8H70.8037V118.8H68.8145V119.8ZM70.3052 119.261C70.2674 119.753 70.0904 120.227 69.7562 120.688L70.5661 121.275C70.9975 120.679 71.2489 120.031 71.3022 119.338L70.3052 119.261ZM69.7547 120.69C69.2524 121.391 68.5112 121.76 67.4473 121.76V122.76C68.7805 122.76 69.8485 122.276 70.5676 121.273L69.7547 120.69ZM67.4473 121.76C66.3486 121.76 65.6349 121.438 65.1932 120.882L64.4103 121.504C65.0988 122.371 66.1488 122.76 67.4473 122.76V121.76ZM65.1932 120.882C64.7144 120.28 64.4541 119.475 64.4541 118.425H63.4541C63.4541 119.644 63.7589 120.685 64.4103 121.504L65.1932 120.882ZM64.4541 118.425C64.4541 117.222 64.7467 116.359 65.2663 115.767L64.5149 115.108C63.7859 115.938 63.4541 117.066 63.4541 118.425H64.4541ZM65.2663 115.767C65.7801 115.182 66.4946 114.871 67.4746 114.871V113.871C66.258 113.871 65.2499 114.271 64.5149 115.108L65.2663 115.767ZM67.4746 114.871C68.3351 114.871 68.9892 115.064 69.4758 115.408L70.0535 114.592C69.3552 114.098 68.4827 113.871 67.4746 113.871V114.871ZM69.4773 115.409C69.9093 115.713 70.2253 116.287 70.3269 117.273L71.3216 117.17C71.2044 116.033 70.814 115.126 70.052 114.591L69.4773 115.409ZM78.3848 121.098L78.773 121.413L78.7739 121.412L78.3848 121.098ZM72.6562 121.098L72.2672 121.412L72.2681 121.413L72.6562 121.098ZM72.6562 115.492L72.2654 115.18L72.6562 115.492ZM74.1943 116.565L73.797 116.262L73.7965 116.263L74.1943 116.565ZM74.1943 120.018L73.7949 120.318L73.797 120.321L74.1943 120.018ZM76.8262 120.018L76.4267 119.717L76.8262 120.018ZM76.8262 116.565L76.4267 116.866L76.4284 116.868L76.8262 116.565ZM77.9939 115.804C78.5473 116.498 78.8281 117.318 78.8281 118.288H79.8281C79.8281 117.107 79.4801 116.063 78.7756 115.18L77.9939 115.804ZM78.8281 118.288C78.8281 119.279 78.5461 120.102 77.9957 120.784L78.7739 121.412C79.4813 120.535 79.8281 119.485 79.8281 118.288H78.8281ZM77.9966 120.783C77.4884 121.409 76.6967 121.76 75.5205 121.76V122.76C76.9055 122.76 78.0234 122.336 78.773 121.413L77.9966 120.783ZM75.5205 121.76C74.3443 121.76 73.5527 121.409 73.0444 120.783L72.2681 121.413C73.0177 122.336 74.1355 122.76 75.5205 122.76V121.76ZM73.0453 120.784C72.495 120.102 72.2129 119.279 72.2129 118.288H71.2129C71.2129 119.485 71.5597 120.535 72.2672 121.412L73.0453 120.784ZM72.2129 118.288C72.2129 117.318 72.4937 116.498 73.0471 115.804L72.2654 115.18C71.5609 116.063 71.2129 117.107 71.2129 118.288H72.2129ZM73.0471 115.804C73.5564 115.166 74.3473 114.81 75.5205 114.81V113.81C74.1326 113.81 73.014 114.242 72.2654 115.18L73.0471 115.804ZM75.5205 114.81C76.6938 114.81 77.4847 115.166 77.9939 115.804L78.7756 115.18C78.0271 114.242 76.9085 113.81 75.5205 113.81V114.81ZM75.5137 115.457C74.8089 115.457 74.2134 115.717 73.797 116.262L74.5916 116.869C74.795 116.603 75.0791 116.457 75.5137 116.457V115.457ZM73.7965 116.263C73.3997 116.784 73.2363 117.482 73.2363 118.288H74.2363C74.2363 117.6 74.3783 117.149 74.5922 116.868L73.7965 116.263ZM73.2363 118.288C73.2363 119.095 73.3999 119.794 73.7949 120.318L74.5938 119.717C74.3781 119.43 74.2363 118.976 74.2363 118.288H73.2363ZM73.797 120.321C74.2134 120.866 74.8089 121.126 75.5137 121.126V120.126C75.0791 120.126 74.795 119.98 74.5916 119.714L73.797 120.321ZM75.5137 121.126C76.2184 121.126 76.8133 120.866 77.2256 120.318L76.4267 119.717C76.2283 119.98 75.9483 120.126 75.5137 120.126V121.126ZM77.2256 120.318C77.6206 119.794 77.7842 119.095 77.7842 118.288H76.7842C76.7842 118.976 76.6424 119.43 76.4267 119.717L77.2256 120.318ZM77.7842 118.288C77.7842 117.482 77.6208 116.784 77.224 116.263L76.4284 116.868C76.6422 117.149 76.7842 117.6 76.7842 118.288H77.7842ZM77.2256 116.265C76.8133 115.717 76.2184 115.457 75.5137 115.457V116.457C75.9483 116.457 76.2283 116.603 76.4267 116.866L77.2256 116.265ZM84.9131 116.6L85.3683 116.393L85.3681 116.392L84.9131 116.6ZM82.8281 116.6L82.3866 116.365L82.3829 116.372L82.8281 116.6ZM82.6709 122V122.5H83.1709V122H82.6709ZM80.6953 122H80.1953V122.5H80.6953V122ZM80.6953 114.562V114.062H80.1953V114.562H80.6953ZM82.5889 114.562H83.0889V114.062H82.5889V114.562ZM82.5889 115.649H82.0889V117.396L83.0131 115.914L82.5889 115.649ZM83.2725 114.822L83.5765 115.219L83.5778 115.218L83.2725 114.822ZM86.123 114.761L86.4407 114.375L86.4275 114.364L86.4137 114.354L86.123 114.761ZM86.7656 115.656L86.3014 115.842L86.6816 116.793L87.1975 115.908L86.7656 115.656ZM87.7158 114.692L87.4881 114.247L87.4775 114.253L87.7158 114.692ZM90.8945 115.246L91.2836 114.932L91.2822 114.93L90.8945 115.246ZM91.3184 116.203L91.8103 116.114L91.8093 116.108L91.3184 116.203ZM91.3867 117.304L91.8867 117.305V117.304H91.3867ZM91.373 122V122.5H91.8716L91.873 122.001L91.373 122ZM89.377 122H88.877V122.5H89.377V122ZM89.2402 116.559L89.6874 116.335L89.2402 116.559ZM87.1689 116.709L86.7145 116.5L86.7117 116.507L87.1689 116.709ZM87.0117 122V122.5H87.5117V122H87.0117ZM85.0498 122H84.5498V122.5H85.0498V122ZM85.3681 116.392C85.2454 116.123 85.0539 115.904 84.7935 115.758C84.5391 115.616 84.2491 115.56 83.9492 115.56V116.56C84.1278 116.56 84.2378 116.593 84.3047 116.631C84.3655 116.665 84.4167 116.716 84.4581 116.807L85.3681 116.392ZM83.9492 115.56C83.2854 115.56 82.6959 115.783 82.3866 116.365L83.2696 116.834C83.3432 116.696 83.501 116.56 83.9492 116.56V115.56ZM82.3829 116.372C82.2243 116.682 82.1709 117.083 82.1709 117.516H83.1709C83.1709 117.137 83.2224 116.927 83.2733 116.827L82.3829 116.372ZM82.1709 117.516V122H83.1709V117.516H82.1709ZM82.6709 121.5H80.6953V122.5H82.6709V121.5ZM81.1953 122V114.562H80.1953V122H81.1953ZM80.6953 115.062H82.5889V114.062H80.6953V115.062ZM82.0889 114.562V115.649H83.0889V114.562H82.0889ZM83.0131 115.914C83.2418 115.547 83.4319 115.33 83.5765 115.219L82.9684 114.425C82.6846 114.643 82.419 114.977 82.1646 115.385L83.0131 115.914ZM83.5778 115.218C83.848 115.01 84.222 114.885 84.7422 114.885V113.885C84.0593 113.885 83.4534 114.051 82.9671 114.426L83.5778 115.218ZM84.7422 114.885C85.2408 114.885 85.5898 114.994 85.8324 115.168L86.4137 114.354C85.9545 114.026 85.3829 113.885 84.7422 113.885V114.885ZM85.8054 115.147C86.0183 115.322 86.1844 115.55 86.3014 115.842L87.2299 115.471C87.0552 115.034 86.7929 114.664 86.4407 114.375L85.8054 115.147ZM87.1975 115.908C87.4149 115.536 87.6697 115.286 87.9541 115.132L87.4775 114.253C87.0055 114.509 86.6268 114.902 86.3337 115.404L87.1975 115.908ZM87.9435 115.138C88.2677 114.972 88.6352 114.885 89.0557 114.885V113.885C88.4918 113.885 87.9661 114.003 87.4882 114.247L87.9435 115.138ZM89.0557 114.885C89.3172 114.885 89.5779 114.935 89.8407 115.04L90.2121 114.112C89.8368 113.962 89.4504 113.885 89.0557 113.885V114.885ZM89.8407 115.04C90.0666 115.131 90.2901 115.296 90.5068 115.562L91.2822 114.93C90.9794 114.558 90.6241 114.277 90.2121 114.112L89.8407 115.04ZM90.5054 115.56C90.6563 115.747 90.7676 115.987 90.8274 116.298L91.8093 116.108C91.7233 115.662 91.5521 115.265 91.2836 114.932L90.5054 115.56ZM90.8264 116.293C90.8638 116.498 90.8867 116.829 90.8867 117.304H91.8867C91.8867 116.812 91.8641 116.409 91.8103 116.114L90.8264 116.293ZM90.8867 117.302L90.873 121.999L91.873 122.001L91.8867 117.305L90.8867 117.302ZM91.373 121.5H89.377V122.5H91.373V121.5ZM89.877 122V117.256H88.877V122H89.877ZM89.877 117.256C89.877 116.924 89.8241 116.608 89.6874 116.335L88.793 116.782C88.8387 116.874 88.877 117.023 88.877 117.256H89.877ZM89.6874 116.335C89.5583 116.077 89.3653 115.868 89.1096 115.73C88.8592 115.594 88.5761 115.539 88.2832 115.539V116.539C88.4551 116.539 88.564 116.571 88.6325 116.608C88.6959 116.643 88.749 116.694 88.793 116.782L89.6874 116.335ZM88.2832 115.539C87.9453 115.539 87.6239 115.61 87.3437 115.778C87.0605 115.948 86.8532 116.198 86.7146 116.5L87.6233 116.918C87.6897 116.773 87.7707 116.688 87.859 116.635C87.9501 116.58 88.0834 116.539 88.2832 116.539V115.539ZM86.7117 116.507C86.5719 116.823 86.5117 117.18 86.5117 117.563H87.5117C87.5117 117.281 87.5564 117.069 87.6262 116.911L86.7117 116.507ZM86.5117 117.563V122H87.5117V117.563H86.5117ZM87.0117 121.5H85.0498V122.5H87.0117V121.5ZM85.5498 122V117.563H84.5498V122H85.5498ZM85.5498 117.563C85.5498 117.108 85.506 116.696 85.3683 116.393L84.4579 116.807C84.5025 116.905 84.5498 117.135 84.5498 117.563H85.5498Z" fill="black" mask="url(#path-2-outside-1_345_418381)"/>
<rect x="6" y="6" width="89" height="87" fill="white"/>
<path d="M11 1C5.46 1 1 5.46002 1 11V91C1 96.5399 5.46 101 11 101H91C96.54 101 101 96.5399 101 91V11C101 5.46002 96.54 1 91 1H11ZM42.875 13.2813C43.6385 13.2752 44.3814 13.5707 44.9375 14.0938C46.0226 15.1264 46.1678 17.0286 45.2188 18.1875L38.8125 25.9688C43.8658 29.0162 47.0057 34.727 46.0625 40.6562C44.8866 48.0495 37.3822 52.5517 30 50.625C23.8018 49.0073 19.1461 43.6631 18.625 37.3437C18.462 35.7596 19.7882 34.1654 21.375 34.0313C22.9618 33.8972 24.5199 35.2235 24.625 36.8125C24.921 40.4025 27.8108 43.8809 31.5 44.8438C35.9179 45.9969 39.4839 43.7489 40.125 39.7187C40.7663 35.6869 37.7099 31.1558 33.2812 30C32.3099 29.7497 31.4997 28.9846 31.1875 28.0313C30.8753 27.078 31.0836 25.9639 31.7188 25.1875L36.5312 19.2812L24.8438 19.3125C23.2042 19.4296 21.625 17.9562 21.625 16.3125C21.625 14.6688 23.2042 13.1954 24.8438 13.3125L42.875 13.2813ZM54.2812 13.5H61.7812V43.875H69.8125V29.5L73.1875 29.6875C73.1875 29.6875 74.4424 38.2223 78 43.875H82.9375V50.875H54.2812V13.5ZM73.9688 18.75C74.5112 18.752 74.9772 18.8646 75.1875 19.1563C76.0283 20.323 76.3271 22.9072 75.1875 24.0625C73.9314 25.3355 69.8125 24.125 69.8125 24.125V19.7187C69.8125 19.7187 72.3414 18.74 73.9688 18.75ZM66.3125 55.5625H70.5312C70.3873 56.2825 70.3438 56.9682 70.3438 58.1562V58.8125H80.0938C82.0017 58.8125 83.3575 58.7378 84.4375 58.5937V62.4999C83.2855 62.3561 81.9297 62.2812 80.0938 62.2812H73.6875C76.7115 65.3772 80.7603 67.5959 85.6562 68.9999C84.6123 70.3679 84.1888 71.1082 83.4688 72.6562C80.6247 71.5042 79.09 70.7355 76.75 69.1875L78.7188 71.5625C78.4668 71.7065 78.4538 71.748 78.0938 72C77.8417 72.216 77.8225 72.2107 76.5625 73.2187C75.1585 74.3347 72.8387 75.8547 71.2188 76.7187H80.3438C82.3597 76.7187 83.437 76.6437 84.625 76.4999V80.5C83.329 80.3562 82.266 80.2812 80.25 80.2812H71V85.0312C71 87.8752 69.818 88.75 65.75 88.75C64.634 88.75 63.37 88.7019 61.75 88.5937C61.498 86.9737 61.2275 86.01 60.6875 84.75C62.5235 85.038 64.0335 85.1563 65.4375 85.1563C66.7335 85.1563 67.0938 84.9435 67.0938 84.1875V80.2812H56.9375C54.9215 80.2812 53.8225 80.3562 52.5625 80.5V76.4999C53.7145 76.6437 54.8277 76.7187 56.8437 76.7187H67.0938C67.0577 75.8907 67.0408 75.5447 66.9688 74.9687H68.375C69.239 74.6807 70.8555 73.6377 72.1875 72.5937H62.5312C61.1273 72.5937 60.5262 72.6684 58.9062 72.8124V70C57.2863 71.008 56.0227 71.6577 53.7188 72.5937C53.0707 71.2257 52.6377 70.6179 51.5938 69.2499C53.7537 68.5659 55.6348 67.7484 57.2188 66.8124C59.4507 65.5885 61.649 63.9012 63.125 62.2812H57.0938C55.3658 62.2812 53.974 62.3559 52.75 62.4999V58.5937C53.938 58.7375 55.0418 58.8125 57.0938 58.8125H66.5V58.1562C66.5 56.8602 66.4565 56.3185 66.3125 55.5625ZM18.875 57.4687C20.135 57.6487 21.268 57.75 23.5 57.75H41.1875C43.4555 57.75 44.6007 57.6487 45.9688 57.4687V62.0624C44.4568 61.8826 43.3068 61.8437 41.2188 61.8437H23.5938C21.2538 61.8437 20.135 61.8825 18.875 62.0624V57.4687ZM70.25 63.3125C70.286 63.8525 70.3437 64.4335 70.3437 64.9375V65.5312C70.3437 66.9352 70.3873 67.6767 70.5312 68.4687H66.2812C66.4252 67.7127 66.5 66.904 66.5 65.5V64.9375C66.5 64.2895 66.5218 63.8837 66.5938 63.3437C64.5417 65.8637 63.0002 67.2075 60.1562 69.1875C60.9842 69.2284 61.3547 69.2187 62.2187 69.2187H73.6562C75.0602 69.2187 75.8065 69.2017 76.5625 69.0937C73.9345 67.2937 72.266 65.7965 70.25 63.3125ZM21.1875 69.4062C22.3035 69.5507 23.431 69.5937 25.375 69.5937H39.4375C41.0935 69.5937 42.3602 69.5503 43.6562 69.4062V73.8437C42.2162 73.6992 41.1248 73.6562 39.4688 73.6562H25.4375C23.5655 73.6562 22.5195 73.6997 21.1875 73.8437V69.4062ZM16.375 82.1875C17.887 82.3313 19.1647 82.4062 21.4688 82.4062H43.4375C45.5255 82.4062 46.8895 82.3311 48.4375 82.1875V86.8125C46.9975 86.6325 45.9745 86.5625 43.5625 86.5625H21.5938C19.3618 86.5625 17.995 86.6326 16.375 86.8125V82.1875Z" fill="#D40000" stroke="black" stroke-width="0.5"/>
</svg>
