<?xml version="1.0" encoding="UTF-8" standalone="no"?>
<!-- Created with Inkscape (http://www.inkscape.org/) -->

<svg
   width="130"
   height="130"
   id="svg2"
   version="1.1"
   inkscape:version="1.2.2 (b0a84865, 2022-12-01)"
   sodipodi:docname="3LiRsquare.svg"
   inkscape:export-filename="/Users/randallli/Documents/code/3li/tripleLi Logo/3LiRsquare.png"
   inkscape:export-xdpi="207.69231"
   inkscape:export-ydpi="207.69231"
   xmlns:inkscape="http://www.inkscape.org/namespaces/inkscape"
   xmlns:sodipodi="http://sodipodi.sourceforge.net/DTD/sodipodi-0.dtd"
   xmlns="http://www.w3.org/2000/svg"
   xmlns:svg="http://www.w3.org/2000/svg"
   xmlns:rdf="http://www.w3.org/1999/02/22-rdf-syntax-ns#"
   xmlns:cc="http://creativecommons.org/ns#"
   xmlns:dc="http://purl.org/dc/elements/1.1/">
  <defs
     id="defs4">
    <linearGradient
       id="linearGradient5109">
      <stop
         style="stop-color:#000000;stop-opacity:1;"
         offset="0"
         id="stop5111" />
      <stop
         style="stop-color:#000000;stop-opacity:0;"
         offset="1"
         id="stop5113" />
    </linearGradient>
  </defs>
  <sodipodi:namedview
     id="base"
     pagecolor="#ffffff"
     bordercolor="#666666"
     borderopacity="1.0"
     inkscape:pageopacity="0.0"
     inkscape:pageshadow="2"
     inkscape:zoom="4.0233463"
     inkscape:cx="64.125725"
     inkscape:cy="75.807544"
     inkscape:document-units="px"
     inkscape:current-layer="layer1"
     showgrid="false"
     inkscape:snap-grids="true"
     showguides="false"
     inkscape:guide-bbox="true"
     inkscape:snap-bbox="false"
     inkscape:snap-to-guides="true"
     inkscape:window-width="1507"
     inkscape:window-height="828"
     inkscape:window-x="96"
     inkscape:window-y="81"
     inkscape:window-maximized="0"
     inkscape:showpageshadow="2"
     inkscape:pagecheckerboard="0"
     inkscape:deskcolor="#d1d1d1">
    <sodipodi:guide
       orientation="0,1"
       position="200.00062,618.54166"
       id="guide2997"
       inkscape:locked="false" />
    <sodipodi:guide
       orientation="1,0"
       position="200.46477,600.15688"
       id="guide2999"
       inkscape:locked="false" />
    <sodipodi:guide
       orientation="1,0"
       position="209.83394,704.45513"
       id="guide3001"
       inkscape:locked="false" />
    <sodipodi:guide
       orientation="0,1"
       position="167.58431,650.00791"
       id="guide3003"
       inkscape:locked="false" />
    <sodipodi:guide
       orientation="0,1"
       position="164.5791,612.00092"
       id="guide3005"
       inkscape:locked="false" />
    <sodipodi:guide
       orientation="1,0"
       position="219.91021,618.54166"
       id="guide3007"
       inkscape:locked="false" />
    <sodipodi:guide
       orientation="0,1"
       position="174.65537,630.03214"
       id="guide3009"
       inkscape:locked="false" />
    <sodipodi:guide
       orientation="1,0"
       position="236.38462,656.02564"
       id="guide3011"
       inkscape:locked="false" />
    <sodipodi:guide
       orientation="0,1"
       position="178.05128,603.25641"
       id="guide3013"
       inkscape:locked="false" />
    <sodipodi:guide
       orientation="1,0"
       position="226.62772,656.37187"
       id="guide3015"
       inkscape:locked="false" />
    <sodipodi:guide
       orientation="1,0"
       position="248.78919,634.75875"
       id="guide3871"
       inkscape:locked="false" />
  </sodipodi:namedview>
  <metadata
     id="metadata7">
    <rdf:RDF>
      <cc:Work
         rdf:about="">
        <dc:format>image/svg+xml</dc:format>
        <dc:type
           rdf:resource="http://purl.org/dc/dcmitype/StillImage" />
        <dc:title />
      </cc:Work>
    </rdf:RDF>
  </metadata>
  <g
     inkscape:label="Layer 1"
     inkscape:groupmode="layer"
     id="layer1"
     transform="translate(0,-922.36218)">
    <path
       style="fill:#0087d4;fill-opacity:1;stroke:#000000;stroke-width:0.1;stroke-miterlimit:4;stroke-opacity:1;stroke-dasharray:none"
       d="m 25,1026.1122 c -5.54,0 -10,4.46 -10,10 l 0,5 c 0,5.54 4.46,10 10,10 l 80,0 c 5.54,0 10,-4.46 10,-10 l 0,-5 c 0,-5.54 -4.46,-10 -10,-10 l -80,0 z m 2.5625,4.625 11.375,0 0,2.4062 -4.21875,0 0,11.9063 -2.90625,0 0,-11.9063 -4.25,0 0,-2.4062 z m 19.875,0 2.75,0 0,2.5312 -2.75,0 0,-2.5312 z m 17.78125,0 2.75,0 0,14.3125 -2.75,0 0,-14.3125 z m 34.46875,0 2.71875,0 0,2.5312 -2.71875,0 0,-2.5312 z m -12.15625,0.094 2.90625,0 0,11.8125 7.1875,0 0,2.4062 -10.09375,0 0,-14.2187 z m -43.0625,3.5937 c 0.62499,0 1.23306,0.1862 1.8125,0.5313 l -0.84375,2.375 c -0.46225,-0.2995 -0.91537,-0.4375 -1.3125,-0.4375 -0.38412,0 -0.70183,0.098 -0.96875,0.3125 -0.26693,0.2083 -0.46876,0.6028 -0.625,1.1562 -0.14975,0.5534 -0.21876,1.7045 -0.21875,3.4688 l 0,3.2187 -2.75,0 0,-10.375 2.53125,0 0,1.4688 c 0.4362,-0.6966 0.84244,-1.1537 1.1875,-1.375 0.35156,-0.2214 0.74478,-0.3438 1.1875,-0.3438 z m 14.25,0 c 1.20442,0 2.22265,0.4935 3.0625,1.4375 0.83984,0.944 1.24999,2.2513 1.25,3.9375 -1e-5,1.7318 -0.43491,3.0677 -1.28125,4.0313 -0.84637,0.957 -1.85809,1.4375 -3.0625,1.4375 -0.57293,0 -1.09376,-0.1159 -1.5625,-0.3438 -0.46225,-0.2278 -0.95443,-0.6028 -1.46875,-1.1562 l 0,5.2187 -2.75,0 0,-14.3125 2.5625,0 0,1.5313 c 0.33202,-0.5209 0.77734,-0.9557 1.34375,-1.2813 0.5664,-0.3255 1.21614,-0.5 1.90625,-0.5 z m 16,0 c 1.54296,0 2.76431,0.5091 3.65625,1.5313 0.89191,1.0156 1.32031,2.5846 1.28125,4.6875 l -6.875,0 c 0.0195,0.8138 0.23306,1.4505 0.65625,1.9062 0.42317,0.4492 0.96223,0.6875 1.59375,0.6875 0.42968,0 0.80078,-0.1406 1.09375,-0.375 0.29296,-0.2343 0.50651,-0.6041 0.65625,-1.125 l 2.71875,0.4685 c -0.35157,1.0026 -0.89454,1.7539 -1.65625,2.2812 -0.75522,0.5209 -1.70443,0.7813 -2.84375,0.7813 -1.80339,0 -3.13411,-0.5716 -4,-1.75 -0.68359,-0.944 -1.03125,-2.155 -1.03125,-3.5938 0,-1.7187 0.44531,-3.0612 1.34375,-4.0312 0.89843,-0.9766 2.03255,-1.4688 3.40625,-1.4688 z m -27.28125,0.25 2.75,0 0,10.375 -2.75,0 0,-10.375 z m 52.25,0 2.71875,0 0,10.375 -2.71875,0 0,-10.375 z m -24.8125,1.875 c -0.59897,0 -1.07813,0.1888 -1.46875,0.625 -0.39063,0.4362 -0.56901,1.0326 -0.5625,1.7813 l 4.09375,0 c -0.0195,-0.7943 -0.23438,-1.3711 -0.625,-1.7813 -0.39063,-0.4166 -0.87761,-0.625 -1.4375,-0.625 z m -16.90625,0.062 c -0.67058,0 -1.2448,0.2605 -1.6875,0.7813 -0.44271,0.5143 -0.65626,1.2656 -0.65625,2.2812 -1e-5,1.1654 0.22526,2.0339 0.6875,2.5938 0.46224,0.5534 1.02343,0.8437 1.6875,0.8437 0.63801,0 1.17057,-0.2734 1.59375,-0.7812 0.42317,-0.5143 0.65624,-1.3347 0.65625,-2.5 -1e-5,-1.0873 -0.22006,-1.9102 -0.65625,-2.4375 -0.4362,-0.5274 -0.98048,-0.7813 -1.625,-0.7813 z"
       id="rect5025"
       inkscape:connector-curvature="0"
       inkscape:label="blue letters" />
    <rect
       style="opacity:1;fill:#ffffff;stroke-width:6"
       id="rect372"
       width="86.743713"
       height="88.980682"
       x="21.375242"
       y="929.073"
       rx="4.2118096"
       ry="7.6545401"
       inkscape:label="white bg stamp" />
    <path
       inkscape:connector-curvature="0"
       id="rect4914"
       d="m 25,923.61218 c -5.54,0 -10,4.46 -10,10 l 0,80.00002 c 0,5.54 4.46,10 10,10 l 80,0 c 5.54,0 10,-4.46 10,-10 l 0,-80.00002 c 0,-5.54 -4.46,-10 -10,-10 l -80,0 z m 30.96875,8.09375 a 3.3365986,3.3365986 0 0 1 2.3125,0.90625 3.3365986,3.3365986 0 0 1 0.28125,4.53125 l -7.09375,8.65625 c 5.61476,3.386 9.07925,9.72447 8.03125,16.3125 -1.30656,8.2148 -9.64134,13.23461 -17.84375,11.09375 -6.88687,-1.79741 -12.04596,-7.7597 -12.625,-14.78125 a 3.3405436,3.3405436 0 1 1 6.65625,-0.5625 c 0.32891,3.98889 3.55719,7.83637 7.65625,8.90625 4.90877,1.28118 8.85022,-1.20952 9.5625,-5.6875 0.71253,-4.47975 -2.67307,-9.52825 -7.59375,-10.8125 a 3.3365986,3.3365986 0 0 1 -1.75,-5.34375 l 5.375,-6.5625 -13,0.0312 a 3.3365986,3.3365986 0 1 1 0,-6.65625 l 20.03125,-0.0312 z m 12.6875,0.25 8.3125,0 0,33.75 8.9375,0 0,-16 3.75,0.21875 c 0,0 1.39091,9.50055 5.34375,15.78125 l 5.5,0 0,7.75 -31.84375,0 0,-41.5 z m 21.875,5.8125 c 0.60271,0.002 1.11012,0.14464 1.34375,0.46875 0.93426,1.2963 1.26619,4.15386 0,5.4375 -1.39569,1.41506 -5.96875,0.0625 -5.96875,0.0625 l 0,-4.875 c 0,0 2.81686,-1.10075 4.625,-1.09375 z m -8.5,40.90625 4.65625,0 c -0.16,0.8 -0.1875,1.555 -0.1875,2.875 l 0,0.75 10.8125,0 c 2.11999,0 3.64375,-0.09 4.84375,-0.25 l 0,4.34375 c -1.28,-0.16 -2.80376,-0.25 -4.84375,-0.25 l -7.09375,0 c 3.35999,3.44 7.84125,5.90876 13.28125,7.46875 -1.16,1.52 -1.6375,2.34251 -2.4375,4.0625 -3.16,-1.28 -4.83751,-2.12375 -7.4375,-3.84375 l 2.1875,2.625 c -0.28,0.16 -0.31875,0.22 -0.71875,0.5 -0.28,0.24 -0.28751,0.22375 -1.6875,1.34375 -1.56,1.24 -4.13751,2.91502 -5.9375,3.87502 l 10.125,0 c 2.23999,0 3.46125,-0.059 4.78125,-0.2188 l 0,4.4375 c -1.44,-0.16 -2.63501,-0.25 -4.875,-0.25 l -10.28125,0 0,5.2813 c 0,3.16 -1.32376,4.125 -5.84375,4.125 -1.24,0 -2.63751,-0.036 -4.4375,-0.1563 -0.28,-1.8 -0.55625,-2.8812 -1.15625,-4.2812 2.03999,0.32 3.69,0.4375 5.25,0.4375 1.43999,0 1.84375,-0.2225 1.84375,-1.0625 l 0,-4.3438 -11.28125,0 c -2.24,0 -3.44376,0.09 -4.84375,0.25 l 0,-4.4375 c 1.28,0.16 2.51,0.2188 4.75,0.2188 l 11.375,0 c -0.04,-0.92 -0.045,-1.2975 -0.125,-1.9375 l 1.5625,0 c 0.96,-0.32002 2.73875,-1.46502 4.21875,-2.62502 l -10.71875,0 c -1.56,0 -2.23126,0.0587 -4.03125,0.21875 l 0,-3.09375 c -1.8,1.12 -3.19001,1.835 -5.75,2.875 -0.72,-1.51999 -1.215,-2.19875 -2.375,-3.71875 2.39999,-0.76 4.49,-1.67875 6.25,-2.71875 2.47999,-1.36 4.9225,-3.23125 6.5625,-5.03125 l -6.6875,0 c -1.92,0 -3.48376,0.09 -4.84375,0.25 l 0,-4.34375 c 1.32,0.16 2.56375,0.25 4.84375,0.25 l 10.4375,0 0,-0.75 c 0,-1.44 -0.0275,-2.035 -0.1875,-2.875 z m -52.71875,2.125 c 1.4,0.2 2.645,0.3125 5.125,0.3125 l 19.65625,0 c 2.52,0 3.7925,-0.1125 5.3125,-0.3125 l 0,5.09375 c -1.68,-0.2 -2.96125,-0.25 -5.28125,-0.25 l -19.59375,0 c -2.6,0 -3.81875,0.05 -5.21875,0.25 l 0,-5.09375 z m 57.09375,6.5 c 0.04,0.6 0.0937,1.2525 0.0937,1.8125 l 0,0.65625 c 0,1.56 0.0275,2.37 0.1875,3.25 l -4.71875,0 c 0.16,-0.84 0.25,-1.72125 0.25,-3.28125 l 0,-0.625 c 0,-0.72 0.0137,-1.18125 0.0937,-1.78125 -2.28,2.8 -3.96501,4.30001 -7.125,6.5 0.92,0.04 1.32125,0.0312 2.28125,0.0312 l 12.71875,0 c 1.55999,0 2.37875,-0.0362 3.21875,-0.15625 -2.92,-1.99999 -4.76001,-3.64625 -7,-6.40625 z m -54.53125,6.75 c 1.24,0.16 2.49625,0.21875 4.65625,0.21875 l 15.625,0 c 1.84,0 3.2475,-0.0587 4.6875,-0.21875 l 0,4.9375 c -1.6,-0.16 -2.81625,-0.1875 -4.65625,-0.1875 l -15.59375,0 c -2.08,0 -3.23875,0.0275 -4.71875,0.1875 l 0,-4.9375 z m -5.34375,14.21872 c 1.68,0.16 3.09625,0.25 5.65625,0.25 l 24.40625,0 c 2.32,0 3.8425,-0.09 5.5625,-0.25 l 0,5.125 c -1.6,-0.2 -2.7575,-0.2812 -5.4375,-0.2812 l -24.40625,0 c -2.48,0 -3.98125,0.081 -5.78125,0.2812 l 0,-5.125 z"
       style="fill:#d40000;fill-opacity:1;stroke:#000000;stroke-width:0.1;stroke-miterlimit:4;stroke-opacity:1;stroke-dasharray:none"
       inkscape:export-filename="/Users/randallli/Documents/code/3li/tripleLi Logo/3li_1024x1024.png"
       inkscape:export-xdpi="920.45001"
       inkscape:export-ydpi="920.45001"
       inkscape:label="red logo" />
  </g>
</svg>
