<?xml version="1.0" encoding="UTF-8" standalone="no"?>
<!-- Created with Inkscape (http://www.inkscape.org/) -->

<svg
   width="210mm"
   height="297mm"
   viewBox="0 0 210 297"
   version="1.1"
   id="svg84811"
   inkscape:version="1.2.2 (b0a84865, 2022-12-01)"
   sodipodi:docname="LastCupfulLogo.svg"
   xmlns:inkscape="http://www.inkscape.org/namespaces/inkscape"
   xmlns:sodipodi="http://sodipodi.sourceforge.net/DTD/sodipodi-0.dtd"
   xmlns="http://www.w3.org/2000/svg"
   xmlns:svg="http://www.w3.org/2000/svg">
  <sodipodi:namedview
     id="namedview84813"
     pagecolor="#ffffff"
     bordercolor="#000000"
     borderopacity="0.25"
     inkscape:showpageshadow="2"
     inkscape:pageopacity="0.0"
     inkscape:pagecheckerboard="0"
     inkscape:deskcolor="#d1d1d1"
     inkscape:document-units="mm"
     showgrid="false"
     inkscape:zoom="0.5946522"
     inkscape:cx="409.48306"
     inkscape:cy="439.75285"
     inkscape:window-width="1438"
     inkscape:window-height="603"
     inkscape:window-x="0"
     inkscape:window-y="38"
     inkscape:window-maximized="0"
     inkscape:current-layer="layer1" />
  <defs
     id="defs84808" />
  <g
     inkscape:label="Layer 1"
     inkscape:groupmode="layer"
     id="layer1">
    <g
       id="g86963"
       transform="rotate(34.230273,77.396894,154.99306)">
      <path
         id="path86904"
         style="opacity:0.93;fill:#000000;fill-opacity:1;stroke:none;stroke-width:2.48899;stroke-dasharray:none"
         d="m 92.657621,143.61274 c -1.376787,-19.4194 -4.894112,-12.75245 -3.933842,-19.22156 0.921407,-6.2073 6.67273,-9.47118 8.969358,-16.55194 10.375743,-31.98955 10.373893,4.51067 9.535543,20.19351 l -6.30873,63.10874 c -0.71227,7.12522 -4.331352,12.94731 -9.711565,12.94731 H 61.843404 c -5.380209,0 -9.711571,-5.77312 -9.71157,-12.94731 l 1e-6,-5.47236 c 29.636638,-21.59977 42.793719,-10.06748 40.525786,-42.05639 z"
         sodipodi:nodetypes="ssscsssscs"
         inkscape:label="water" />
      <path
         id="rect84815"
         style="opacity:0.93;fill:none;stroke:#000000;stroke-width:2.729;stroke-dasharray:none"
         d="m 55.246401,120.2392 h 41.70628 c 7.641369,0 14.597709,-1.21414 13.793079,6.38475 l -7.11901,67.23127 c -0.80376,7.59067 -4.887671,13.79308 -10.958913,13.79308 H 59.531245 c -6.071238,0 -10.154127,-6.19273 -10.958915,-13.79308 l -7.119007,-67.23127 c -0.804634,-7.59889 6.151713,-6.38475 13.793078,-6.38475 z"
         sodipodi:nodetypes="sssssssss"
         inkscape:label="cup" />
    </g>
    <g
       id="g86969"
       transform="rotate(29.271175,76.933047,153.62824)"
       style="display:none">
      <path
         id="path86965"
         style="opacity:0.93;fill:#4169d3;fill-opacity:1;stroke:none;stroke-width:2.48899;stroke-dasharray:none"
         d="m 92.657621,143.61274 c -1.376787,-19.4194 -4.894112,-12.75245 -3.933842,-19.22156 0.921407,-6.2073 6.67273,-9.47118 8.969358,-16.55194 10.375743,-31.98955 10.373893,4.51067 9.535543,20.19351 l -6.30873,63.10874 c -0.71227,7.12522 -4.331352,12.94731 -9.711565,12.94731 H 61.843404 c -5.380209,0 -9.711571,-5.77312 -9.71157,-12.94731 l 1e-6,-5.47236 c 29.636638,-21.59977 42.793719,-10.06748 40.525786,-42.05639 z"
         sodipodi:nodetypes="ssscsssscs"
         inkscape:label="water" />
      <path
         id="path86967"
         style="opacity:0.93;fill:none;stroke:#000000;stroke-width:2.729;stroke-dasharray:none"
         d="m 55.246401,120.2392 h 41.70628 c 7.641369,0 14.597709,-1.21414 13.793079,6.38475 l -7.11901,67.23127 c -0.80376,7.59067 -4.887671,13.79308 -10.958913,13.79308 H 59.531245 c -6.071238,0 -10.154127,-6.19273 -10.958915,-13.79308 l -7.119007,-67.23127 c -0.804634,-7.59889 6.151713,-6.38475 13.793078,-6.38475 z"
         sodipodi:nodetypes="sssssssss"
         inkscape:label="cup" />
    </g>
    <path
       id="rect87082"
       style="opacity:0.93;stroke-width:2.72899"
       transform="rotate(18.992537)"
       d="m 169.75851,30.505614 c 5.29966,0 9.2414,8.624191 5.1555,12.902415 l -4.76583,4.990157 c -4.08591,4.278224 -3.74953,14.5127 -5.28661,9.440839 -0.82342,-2.717022 -5.41796,-2.717984 -6.02825,-8.602315 l -0.6653,-6.414739 c -0.61029,-5.884331 6.29084,-12.316357 11.59049,-12.316357 z"
       sodipodi:nodetypes="sssssss" />
  </g>
</svg>
