<?xml version="1.0" encoding="UTF-8" standalone="no"?>
<!-- Created with Inkscape (http://www.inkscape.org/) -->

<svg
   width="200mm"
   height="200mm"
   viewBox="0 0 200 200"
   version="1.1"
   id="svg84811"
   inkscape:version="1.2.2 (b0a84865, 2022-12-01)"
   sodipodi:docname="LastCupfulLogo.svg"
   inkscape:export-filename="../img/LastCupfulLogo512.png"
   inkscape:export-xdpi="65.024002"
   inkscape:export-ydpi="65.024002"
   xmlns:inkscape="http://www.inkscape.org/namespaces/inkscape"
   xmlns:sodipodi="http://sodipodi.sourceforge.net/DTD/sodipodi-0.dtd"
   xmlns="http://www.w3.org/2000/svg"
   xmlns:svg="http://www.w3.org/2000/svg">
  <sodipodi:namedview
     id="namedview84813"
     pagecolor="#ffffff"
     bordercolor="#000000"
     borderopacity="0.25"
     inkscape:showpageshadow="2"
     inkscape:pageopacity="0.0"
     inkscape:pagecheckerboard="0"
     inkscape:deskcolor="#d1d1d1"
     inkscape:document-units="mm"
     showgrid="false"
     inkscape:zoom="0.5946522"
     inkscape:cx="410.32388"
     inkscape:cy="398.5523"
     inkscape:window-width="1409"
     inkscape:window-height="730"
     inkscape:window-x="0"
     inkscape:window-y="38"
     inkscape:window-maximized="0"
     inkscape:current-layer="layer6" />
  <defs
     id="defs84808" />
  <g
     inkscape:label="Color"
     inkscape:groupmode="layer"
     id="layer1"
     style="display:none">
    <g
       id="g89322"
       transform="matrix(0.89802886,0,0,0.89802886,22.595983,-52.546579)"
       style="display:inline"
       inkscape:label="Color">
      <g
         id="g89318"
         transform="rotate(34.230273,77.396894,154.99306)">
        <path
           id="path89314"
           style="opacity:1;fill:#4ac8f3;fill-opacity:1;stroke:none;stroke-width:2.48899;stroke-dasharray:none"
           d="m 92.657621,143.61274 c -1.376787,-19.4194 -4.894112,-12.75245 -3.933842,-19.22156 0.921407,-6.2073 6.67273,-9.47118 8.969358,-16.55194 10.375743,-31.98955 10.373893,4.51067 9.535543,20.19351 l -6.99708,62.97781 c -0.790715,7.11694 -0.11451,8.19104 -5.209214,9.92039 -4.722303,1.60294 -19.986769,3.31484 -36.308369,1.04957 -5.329128,-0.73963 -4.930036,-2.9661 -5.457932,-10.12084 l -0.533317,-7.22822 c 29.636638,-21.59977 42.202786,-9.02981 39.934853,-41.01872 z"
           sodipodi:nodetypes="ssscsssscs"
           inkscape:label="water" />
        <path
           id="path89316"
           style="display:none;opacity:1;fill:none;stroke:#000000;stroke-width:2.78387;stroke-dasharray:none"
           d="m 55.246401,120.2392 h 41.70628 c 7.641369,0 14.597709,-1.21414 13.793079,6.38475 l -7.11901,67.23127 c -0.80376,7.59067 -4.887671,13.79308 -10.958913,13.79308 H 59.531245 c -6.071238,0 -10.154127,-6.19273 -10.958915,-13.79308 l -7.119007,-67.23127 c -0.804634,-7.59889 6.151713,-6.38475 13.793078,-6.38475 z"
           sodipodi:nodetypes="sssssssss"
           inkscape:label="cup" />
      </g>
      <path
         id="path89320"
         style="opacity:1;fill:#4ac8f3;fill-opacity:1;stroke-width:2.72899"
         transform="rotate(18.992537)"
         d="m 169.75851,30.505614 c 5.29966,0 9.2414,8.624191 5.1555,12.902415 l -4.76583,4.990157 c -4.08591,4.278224 -3.74953,14.5127 -5.28661,9.440839 -0.82342,-2.717022 -5.41796,-2.717984 -6.02825,-8.602315 l -0.6653,-6.414739 c -0.61029,-5.884331 6.29084,-12.316357 11.59049,-12.316357 z"
         sodipodi:nodetypes="sssssss" />
    </g>
  </g>
  <g
     inkscape:groupmode="layer"
     id="layer2"
     inkscape:label="Mono"
     style="display:none">
    <g
       id="g89294"
       transform="matrix(0.89802886,0,0,0.89802886,22.595983,-52.54658)"
       style="display:inline"
       inkscape:label="Mono">
      <g
         id="g86963"
         transform="rotate(34.230273,77.396894,154.99306)">
        <path
           id="path86904"
           style="display:inline;opacity:1;fill:#000000;fill-opacity:1;stroke:none;stroke-width:2.48899;stroke-dasharray:none"
           d="m 92.657621,143.61274 c -1.376787,-19.4194 -4.894112,-12.75245 -3.933842,-19.22156 0.921407,-6.2073 6.67273,-9.47118 8.969358,-16.55194 10.375743,-31.98955 10.373893,4.51067 9.535543,20.19351 l -6.30873,63.10874 c -0.71227,7.12522 -4.331352,12.94731 -9.711565,12.94731 H 61.843404 c -5.380209,0 -9.711571,-5.77312 -9.71157,-12.94731 l 1e-6,-5.47236 c 29.636638,-21.59977 42.793719,-10.06748 40.525786,-42.05639 z"
           sodipodi:nodetypes="ssscsssscs"
           inkscape:label="water" />
        <path
           id="rect84815"
           style="display:none;opacity:1;fill:none;stroke:#000000;stroke-width:2.729;stroke-dasharray:none"
           d="m 55.246401,120.2392 h 41.70628 c 7.641369,0 14.597709,-1.21414 13.793079,6.38475 l -7.11901,67.23127 c -0.80376,7.59067 -4.887671,13.79308 -10.958913,13.79308 H 59.531245 c -6.071238,0 -10.154127,-6.19273 -10.958915,-13.79308 l -7.119007,-67.23127 c -0.804634,-7.59889 6.151713,-6.38475 13.793078,-6.38475 z"
           sodipodi:nodetypes="sssssssss"
           inkscape:label="cup" />
      </g>
      <path
         id="rect87082"
         style="display:inline;opacity:1;stroke-width:2.72899"
         transform="rotate(18.992537)"
         d="m 169.75851,30.505614 c 5.29966,0 9.2414,8.624191 5.1555,12.902415 l -4.76583,4.990157 c -4.08591,4.278224 -3.74953,14.5127 -5.28661,9.440839 -0.82342,-2.717022 -5.41796,-2.717984 -6.02825,-8.602315 l -0.6653,-6.414739 c -0.61029,-5.884331 6.29084,-12.316357 11.59049,-12.316357 z"
         sodipodi:nodetypes="sssssss"
         inkscape:label="splash" />
    </g>
  </g>
  <g
     inkscape:groupmode="layer"
     id="layer6"
     inkscape:label="whole thing"
     transform="translate(-2.1376472,3.1186946)">
    <g
       inkscape:groupmode="layer"
       id="layer4"
       inkscape:label="cup">
      <path
         id="path97644"
         style="display:inline;opacity:1;fill:none;fill-opacity:1;stroke:#000000;stroke-width:2.11667;stroke-dasharray:none"
         d="M 136.82487,81.201175 91.095192,132.82576 c -1.426889,1.26383 -2.472438,1.70482 -9.414461,-1.7782 -6.942015,-3.48301 -15.622245,-9.25326 -21.707634,-14.43032 -6.085379,-5.17706 -7.158629,-6.75977 -6.019942,-8.48096 L 84.989574,46.496014 M 138.9738,81.356829 C 137.34205,83.792348 123.68755,77.504713 108.47563,67.312998 93.263693,57.121288 82.254791,46.884892 83.886545,44.449373 c 1.631754,-2.435518 15.286252,3.85212 30.498185,14.04383 15.21193,10.191715 26.22082,20.428107 24.58907,22.863626 z"
         sodipodi:nodetypes="ccssccsssss"
         inkscape:label="path97644" />
    </g>
    <g
       inkscape:groupmode="layer"
       id="layer5"
       inkscape:label="water">
      <path
         id="path97680"
         style="display:inline;opacity:1;fill:#4ac8f3;fill-opacity:1;stroke:none;stroke-width:2.23356"
         d="m 127.30198,67.466466 c 2.8799,-21.172276 32.99703,-19.158742 25.37126,-8.472705 l -41.81436,47.367009 -5.10697,5.76531 -5.107,5.76531 -5.106986,5.76531 -5.106979,5.76531 c -1.274812,1.12913 -2.208927,1.52312 -8.411075,-1.58868 -6.202141,-3.1118 -13.95724,-8.26706 -19.394053,-12.89235 -5.436805,-4.6253 -6.395669,-6.03932 -5.378342,-7.57707 l 6.932146,-13.767674 c 0,0 19.136569,8.677384 33.242582,4.309838 14.106037,-4.367547 26.999877,-9.267333 29.879777,-30.439608 z"
         sodipodi:nodetypes="zccccccsscczz"
         inkscape:label="path97644" />
      <path
         style="opacity:1;fill:#4ac8f3;fill-opacity:1;stroke:none;stroke-width:2.5;stroke-dasharray:none;stroke-opacity:1"
         d="m 162.17244,38.070481 c 7.3646,-4.897508 9.98911,-12.700677 13.44159,-17.724788 3.45247,-5.02411 -2.83096,-7.246383 -7.86846,-6.11917 -5.0375,1.127213 -6.59539,5.007737 -8.84567,8.910063 -2.25028,3.902326 -4.09206,19.831403 3.27254,14.933895 z"
         id="path97683"
         sodipodi:nodetypes="zzzzz" />
    </g>
    <g
       inkscape:groupmode="layer"
       id="g97898"
       inkscape:label="cup top rim">
      <path
         id="path97896"
         style="display:inline;opacity:1;fill:none;fill-opacity:1;stroke:#000000;stroke-width:2.11667;stroke-dasharray:none"
         d="M 136.82487,81.201175 91.095192,132.82576 c -1.426889,1.26383 -2.472438,1.70482 -9.414461,-1.7782 -6.942015,-3.48301 -15.622245,-9.25326 -21.707634,-14.43032 -6.085379,-5.17706 -7.158629,-6.75977 -6.019942,-8.48096 L 84.989574,46.496014 M 138.9738,81.356829 C 137.34205,83.792348 123.68755,77.504713 108.47563,67.312998 93.263693,57.121288 82.254791,46.884892 83.886545,44.449373"
         sodipodi:nodetypes="ccsscccsc"
         inkscape:label="path97644" />
    </g>
    <g
       inkscape:groupmode="layer"
       id="layer3"
       inkscape:label="hand">
      <path
         id="rect97583"
         style="display:inline;opacity:1;fill:none;fill-opacity:1;stroke:#000000;stroke-width:1.5875;stroke-dasharray:none;stroke-opacity:1"
         d="m 83.192849,161.64476 14.977722,-5.7332 c 3.635589,-0.58318 18.525489,-0.97146 22.724039,-9.83801 l -1.30809,-6.18658 c -0.68173,-3.22374 -3.86855,-5.32269 -7.41556,-5.06292 -0.36691,0.0271 -0.73768,0.0787 -1.10995,0.15752 -5.78713,0.50889 -11.538486,1.0998 -16.316685,3.91893 -2.499414,0.52855 -20.658526,3.85491 -20.658526,3.85491 0,0 -16.607265,-2.47203 -21.490378,-2.76864 -4.620464,-0.28066 -13.301043,-0.0791 -13.301043,-0.0791 -4.006969,-0.64574 -7.698494,1.72429 -8.276966,5.31387 l -2.513835,19.03376 c -0.578474,3.58957 5.336107,1.19779 9.343076,1.84353 l 40.470612,12.70343 c 4.74322,1.48886 30.410085,-5.65448 34.249735,-7.22293 l 26.99455,-12.13021 17.556,-10.24248 c 3.68898,-1.6924 13.48508,-9.31605 12.05696,-12.65973 l -0.36553,-0.85516 c -1.11571,-2.61225 -3.89555,-4.04348 -6.8381,-3.78442 -0.82393,0.0724 -1.66047,0.27745 -2.47696,0.62618 l -18.53685,9.06386 -19.79533,5.28843 c -0.0215,-0.20499 -0.0527,-0.41076 -0.0962,-0.61642"
         sodipodi:nodetypes="ccccccccsccccscccccccccc"
         inkscape:label="Hand" />
    </g>
  </g>
</svg>
